# Blender v3.1.2 OBJ File: 'Rocket.blend'
# www.blender.org
mtllib Rocket.mtl
o Icosphere
v 0.723607 2.196167 0.525725
v -0.276388 2.196166 0.850649
v -0.894426 2.196183 0.000000
v -0.276388 2.196166 -0.850649
v 0.723607 2.196167 -0.525725
v 0.276388 5.867401 0.850649
v -0.723607 5.867400 0.525725
v -0.723607 5.867400 -0.525725
v 0.276388 5.867401 -0.850649
v 0.894426 5.867383 0.000000
v 0.000000 8.136292 0.000000
v -0.178241 0.540265 0.576805
v 0.469301 0.540267 0.358452
v 0.262869 1.873889 0.809012
v 0.850648 1.873896 0.000000
v 0.469301 0.540267 -0.358452
v -0.582063 0.540274 -0.000000
v -0.688189 1.873895 0.499997
v -0.178241 0.540265 -0.576805
v -0.688189 1.873895 -0.499997
v 0.262869 1.873889 -0.809012
v 0.951058 4.031783 0.309013
v 0.951058 4.031783 -0.309013
v 0.000000 4.031783 1.000000
v 0.587786 4.031783 0.809017
v -0.951058 4.031783 0.309013
v -0.587786 4.031783 0.809017
v -0.587786 4.031783 -0.809017
v -0.951058 4.031783 -0.309013
v 0.587786 4.031783 -0.809017
v 0.000000 4.031783 -1.000000
v 0.688189 6.189672 0.499997
v -0.262869 6.189678 0.809012
v -0.850648 6.189671 0.000000
v -0.262869 6.189678 -0.809012
v 0.688189 6.189672 -0.499997
v 0.162456 7.523302 0.499995
v 0.525730 7.523290 0.000000
v -0.425323 7.523300 0.309011
v -0.425323 7.523300 -0.309011
v 0.162456 7.523302 -0.499995
v -0.228277 0.540265 0.729123
v 0.597646 0.540266 0.450619
v 0.597646 0.540266 -0.450619
v -0.738735 0.540275 -0.000000
v -0.228277 0.540265 -0.729123
v 0.597646 0.540266 -0.450619
v -0.228277 0.540265 -0.729123
v -0.738735 0.540275 -0.000000
v -0.228277 0.540265 0.729123
v 0.597646 0.540266 0.450619
v 0.403696 0.317748 -0.314257
v -0.152028 0.317744 -0.501649
v -0.503232 0.317755 0.000000
v -0.152028 0.317744 0.501649
v 0.403696 0.317748 0.314257
v 0.533138 0.317747 -0.407213
v -0.202490 0.317744 -0.655269
v -0.661244 0.317755 -0.000000
v -0.202490 0.317744 0.655269
v 0.533138 0.317747 0.407213
v 0.403698 0.804131 -0.314257
v -0.152026 0.804127 -0.501649
v -0.503230 0.804138 0.000000
v -0.152026 0.804127 0.501649
v 0.403698 0.804131 0.314257
vt 0.272728 0.157461
vt 0.318182 0.078731
vt 0.363637 0.157461
vt 0.847298 0.078731
vt 0.751619 0.078731
vt 0.751619 0.078731
vt 0.847298 0.078731
vt 0.318182 0.236191
vt 0.090910 0.157461
vt 0.181819 0.157461
vt 0.136365 0.236191
vt 0.818182 0.157461
vt 0.909091 0.157461
vt 0.863636 0.236191
vt 0.636364 0.157461
vt 0.727273 0.157461
vt 0.681818 0.236191
vt 0.454546 0.157461
vt 0.545455 0.157461
vt 0.500000 0.236191
vt 0.227273 0.236191
vt 0.045455 0.236191
vt 0.772727 0.236191
vt 0.590909 0.236191
vt 0.409092 0.236191
vt 0.181819 0.314921
vt 0.272728 0.314921
vt 0.227273 0.393651
vt 0.000000 0.314921
vt 0.090910 0.314921
vt 0.045455 0.393651
vt 0.727273 0.314921
vt 0.818182 0.314921
vt 0.772727 0.393651
vt 0.545455 0.314921
vt 0.636364 0.314921
vt 0.590909 0.393651
vt 0.363637 0.314921
vt 0.454546 0.314921
vt 0.409092 0.393651
vt 0.500000 0.393651
vt 0.454546 0.472382
vt 0.681818 0.393651
vt 0.636364 0.472382
vt 0.863636 0.393651
vt 0.818182 0.472382
vt 0.909091 0.314921
vt 0.136365 0.393651
vt 0.090910 0.472382
vt 0.318182 0.393651
vt 0.272728 0.472382
vt 0.954545 0.236191
vt 1.000000 0.157461
vt 0.500000 0.078731
vt 0.590909 0.078731
vt 0.681818 0.078731
vt 0.772727 0.078731
vt 0.863636 0.078731
vt 0.954545 0.078731
vt 0.409092 0.078731
vt 0.136365 0.078731
vt 0.227273 0.078731
vt 0.590909 0.078731
vt 0.772727 0.078731
vt 0.954545 0.078731
vt 0.227273 0.078731
vt 0.409092 0.078731
vt 0.430237 0.078731
vt 0.590126 0.078731
vt 0.334332 0.078730
vt 0.456830 0.078731
vt 0.416580 0.078730
vt 0.416580 0.078730
vt 0.456830 0.078731
vt 0.430237 0.078731
vt 0.590126 0.078731
vt 0.334332 0.078730
vt 0.589376 0.078730
vt 0.725045 0.078731
vt 0.765027 0.078731
vt 0.765027 0.078731
vt 0.725045 0.078731
vt 0.589376 0.078730
vn 0.9552 -0.0855 0.2832
vn -0.7865 0.2799 0.5506
vn 0.9554 -0.0850 0.2830
vn 0.0261 -0.0850 0.9960
vn -0.9392 -0.0850 0.3326
vn -0.6066 -0.0850 -0.7905
vn 0.5643 -0.0850 -0.8212
vn 0.8086 -0.0308 0.5875
vn -0.3089 -0.0308 0.9506
vn -0.9995 -0.0308 0.0000
vn -0.3089 -0.0308 -0.9506
vn 0.8086 -0.0308 -0.5875
vn 0.5332 0.2102 0.8194
vn -0.6145 0.2102 0.7604
vn -0.9131 0.2102 -0.3495
vn 0.0502 0.2102 -0.9764
vn 0.9441 0.2102 -0.2539
vn 0.6647 0.5701 -0.4829
vn 0.7708 0.3038 -0.5600
vn 0.5332 0.2102 -0.8194
vn -0.2539 0.5701 -0.7814
vn -0.2944 0.3038 -0.9061
vn -0.6145 0.2102 -0.7604
vn -0.8216 0.5701 0.0000
vn -0.9527 0.3038 0.0000
vn -0.9131 0.2102 0.3495
vn -0.2539 0.5701 0.7814
vn -0.2944 0.3038 0.9061
vn 0.0502 0.2102 0.9764
vn 0.6647 0.5701 0.4829
vn 0.7708 0.3038 0.5600
vn 0.9441 0.2102 0.2539
vn 0.9392 0.0850 -0.3326
vn 0.8081 0.0465 -0.5871
vn 0.6066 0.0850 -0.7905
vn -0.0261 0.0850 -0.9960
vn -0.3087 0.0465 -0.9500
vn -0.5643 0.0850 -0.8212
vn -0.9554 0.0850 -0.2830
vn -0.9989 0.0465 0.0000
vn -0.9554 0.0850 0.2830
vn -0.5643 0.0850 0.8212
vn -0.3087 0.0465 0.9500
vn -0.0261 0.0850 0.9960
vn 0.6066 0.0850 0.7905
vn 0.8081 0.0465 0.5871
vn 0.9392 0.0850 0.3326
vn 0.3089 0.0308 -0.9506
vn 0.3087 -0.0465 -0.9500
vn 0.0261 -0.0850 -0.9960
vn -0.8086 0.0308 -0.5875
vn -0.8081 -0.0465 -0.5871
vn -0.9392 -0.0850 -0.3326
vn -0.8086 0.0308 0.5875
vn -0.8081 -0.0465 0.5871
vn -0.6066 -0.0850 0.7905
vn 0.3089 0.0308 0.9506
vn 0.3087 -0.0465 0.9500
vn 0.5643 -0.0850 0.8212
vn 0.9995 0.0308 0.0000
vn 0.9989 -0.0465 0.0000
vn 0.9554 -0.0850 -0.2830
vn 0.5621 -0.0801 -0.8232
vn 0.3148 -0.1718 -0.9335
vn 0.0338 -0.0722 -0.9968
vn -0.6115 -0.0756 -0.7876
vn -0.8057 -0.1809 -0.5640
vn -0.9396 -0.0883 -0.3306
vn -0.9396 -0.0883 0.3306
vn -0.8057 -0.1809 0.5640
vn -0.6115 -0.0756 0.7876
vn 0.9552 -0.0855 -0.2832
vn 0.9825 -0.1864 0.0000
vn 0.0338 -0.0722 0.9968
vn 0.3148 -0.1718 0.9335
vn 0.5621 -0.0801 0.8232
vn 0.0000 0.0000 1.0000
vn 0.0000 -1.0000 0.0000
vn -1.0000 0.0000 0.0000
vn 0.3061 0.2867 -0.9078
vn 0.9612 0.2758 0.0000
vn -0.7865 0.2799 -0.5506
vn 0.3061 0.2867 0.9078
vn 0.8192 -0.0000 0.5735
vn -0.3195 0.0000 -0.9476
vn 0.8192 -0.0000 -0.5735
vn -0.3195 0.0000 0.9476
usemtl None
s off
f 1/1/1 51/2/1 15/3/1
f 12/4/2 17/5/2 59/6/2 60/7/2
f 1/1/3 15/3/3 22/8/3
f 2/9/4 14/10/4 24/11/4
f 3/12/5 18/13/5 26/14/5
f 4/15/6 20/16/6 28/17/6
f 5/18/7 21/19/7 30/20/7
f 1/1/8 22/8/8 25/21/8
f 2/9/9 24/11/9 27/22/9
f 3/12/10 26/14/10 29/23/10
f 4/15/11 28/17/11 31/24/11
f 5/18/12 30/20/12 23/25/12
f 6/26/13 32/27/13 37/28/13
f 7/29/14 33/30/14 39/31/14
f 8/32/15 34/33/15 40/34/15
f 9/35/16 35/36/16 41/37/16
f 10/38/17 36/39/17 38/40/17
f 38/40/18 41/41/18 11/42/18
f 38/40/19 36/39/19 41/41/19
f 36/39/20 9/35/20 41/41/20
f 41/37/21 40/43/21 11/44/21
f 41/37/22 35/36/22 40/43/22
f 35/36/23 8/32/23 40/43/23
f 40/34/24 39/45/24 11/46/24
f 40/34/25 34/33/25 39/45/25
f 34/33/26 7/47/26 39/45/26
f 39/31/27 37/48/27 11/49/27
f 39/31/28 33/30/28 37/48/28
f 33/30/29 6/26/29 37/48/29
f 37/28/30 38/50/30 11/51/30
f 37/28/31 32/27/31 38/50/31
f 32/27/32 10/38/32 38/50/32
f 23/25/33 36/39/33 10/38/33
f 23/25/34 30/20/34 36/39/34
f 30/20/35 9/35/35 36/39/35
f 31/24/36 35/36/36 9/35/36
f 31/24/37 28/17/37 35/36/37
f 28/17/38 8/32/38 35/36/38
f 29/23/39 34/33/39 8/32/39
f 29/23/40 26/14/40 34/33/40
f 26/14/41 7/47/41 34/33/41
f 27/22/42 33/30/42 7/29/42
f 27/22/43 24/11/43 33/30/43
f 24/11/44 6/26/44 33/30/44
f 25/21/45 32/27/45 6/26/45
f 25/21/46 22/8/46 32/27/46
f 22/8/47 10/38/47 32/27/47
f 30/20/48 31/24/48 9/35/48
f 30/20/49 21/19/49 31/24/49
f 21/19/50 4/15/50 31/24/50
f 28/17/51 29/23/51 8/32/51
f 28/17/52 20/16/52 29/23/52
f 20/16/53 3/12/53 29/23/53
f 26/14/54 27/52/54 7/47/54
f 26/14/55 18/13/55 27/52/55
f 18/13/56 2/53/56 27/52/56
f 24/11/57 25/21/57 6/26/57
f 24/11/58 14/10/58 25/21/58
f 14/10/59 1/1/59 25/21/59
f 22/8/60 23/25/60 10/38/60
f 22/8/61 15/3/61 23/25/61
f 15/3/62 5/18/62 23/25/62
f 47/54/63 21/19/63 5/18/63
f 47/54/64 48/55/64 21/19/64
f 48/55/65 4/15/65 21/19/65
f 48/56/66 20/16/66 4/15/66
f 48/56/67 49/57/67 20/16/67
f 49/57/68 3/12/68 20/16/68
f 49/58/69 18/13/69 3/12/69
f 49/58/70 50/59/70 18/13/70
f 50/59/71 2/53/71 18/13/71
f 15/3/72 47/60/72 5/18/72
f 15/3/73 51/2/73 47/60/73
f 50/61/74 14/10/74 2/9/74
f 50/61/75 51/62/75 14/10/75
f 51/62/76 1/1/76 14/10/76
f 49/57/77 48/55/77 46/63/77 45/64/77
f 51/62/77 50/59/77 42/65/77 43/66/77
f 47/60/77 51/62/77 43/66/77 44/67/77
f 50/59/77 49/57/77 45/64/77 42/65/77
f 48/55/77 47/60/77 44/67/77 46/63/77
f 16/68/78 19/69/78 48/55/78 47/60/78
f 19/69/78 17/5/78 49/57/78 48/55/78
f 17/5/78 12/4/78 50/59/78 49/57/78
f 13/70/78 16/68/78 47/60/78 51/62/78
f 12/4/78 13/70/78 51/62/78 50/59/78
f 52/71/79 56/72/79 66/73/79 62/74/79
f 19/69/80 16/68/80 57/75/80 58/76/80
f 16/68/81 13/70/81 61/77/81 57/75/81
f 17/5/82 19/69/82 58/76/82 59/6/82
f 13/70/83 12/4/83 60/7/83 61/77/83
f 52/71/78 53/78/78 58/76/78 57/75/78
f 53/78/78 54/79/78 59/6/78 58/76/78
f 54/79/78 55/80/78 60/7/78 59/6/78
f 56/72/78 52/71/78 57/75/78 61/77/78
f 55/80/78 56/72/78 61/77/78 60/7/78
f 65/81/78 64/82/78 63/83/78 62/74/78 66/73/78
f 54/79/84 53/78/84 63/83/84 64/82/84
f 56/72/85 55/80/85 65/81/85 66/73/85
f 55/80/86 54/79/86 64/82/86 65/81/86
f 53/78/87 52/71/87 62/74/87 63/83/87
o Cube_Cube.001
v -0.143579 1.098509 -0.237283
v -0.260399 1.296248 -0.377242
v 0.059029 1.484959 -0.237283
v -0.656505 1.966729 -0.377242
v -0.773325 2.164468 -0.237283
v -0.337077 2.155440 -0.237283
v -0.143579 1.098509 0.237282
v 0.059029 1.484959 0.237282
v -0.260399 1.296248 0.377242
v -0.773325 2.164468 0.237282
v -0.656505 1.966729 0.377242
v -0.337077 2.155440 0.237282
v -1.226675 0.458639 -0.237282
v -1.662923 -0.055173 -0.182093
v -1.343495 0.656377 -0.377242
v -1.856421 1.524598 -0.237282
v -1.739601 1.326859 -0.377242
v -2.059029 0.615309 -0.182093
v -1.226675 0.458639 0.237283
v -1.343495 0.656377 0.377242
v -1.662923 -0.055173 0.182093
v -1.856421 1.524598 0.237283
v -2.059029 0.615309 0.182093
v -1.739601 1.326859 0.377242
v -1.732869 -0.100379 -0.182093
v -1.976808 -0.090291 -0.121610
v -1.732869 -0.100379 0.182093
v -1.976808 -0.090291 0.121611
vt 0.421376 0.796376
vt 0.578624 0.796376
vt 0.578624 0.953624
vt 0.421376 0.953624
vt 0.578624 0.546376
vt 0.578624 0.703624
vt 0.578624 0.703624
vt 0.578624 0.546376
vt 0.671376 0.546376
vt 0.828624 0.546376
vt 0.828624 0.703624
vt 0.671376 0.703624
vt 0.421376 0.046376
vt 0.578624 0.046376
vt 0.578624 0.203624
vt 0.421376 0.203624
vt 0.421376 0.296376
vt 0.578624 0.296376
vt 0.578624 0.453624
vt 0.421376 0.453624
vt 0.171376 0.703624
vt 0.171376 0.750000
vt 0.125000 0.703624
vt 0.625000 0.953624
vt 0.578624 1.000000
vt 0.171376 0.546376
vt 0.125000 0.546376
vt 0.171376 0.500000
vt 0.625000 0.296376
vt 0.625000 0.296376
vt 0.578624 0.250000
vt 0.328624 0.703624
vt 0.375000 0.703624
vt 0.328624 0.750000
vt 0.625000 0.796376
vt 0.625000 0.796376
vt 0.578624 0.750000
vt 0.328624 0.546376
vt 0.328624 0.500000
vt 0.375000 0.546376
vt 0.625000 0.546376
vt 0.625000 0.546376
vt 0.578624 0.500000
vt 0.421376 0.000000
vt 0.578624 0.000000
vt 0.625000 0.046376
vt 0.625000 0.203624
vt 0.625000 0.453624
vt 0.421376 0.546376
vt 0.421376 0.703624
vt 0.421376 0.546376
vt 0.421376 0.703624
vn -0.0000 -0.0000 -1.0000
vn -0.9933 -0.1157 0.0000
vn -0.5086 0.8610 0.0000
vn 0.8610 0.5086 0.0000
vn 0.0000 0.0000 1.0000
vn 0.5159 -0.2705 -0.8128
vn 0.0121 0.5824 -0.8128
vn 0.5159 -0.2705 0.8128
vn 0.0121 0.5824 0.8128
vn 0.3541 -0.3918 -0.8492
vn -0.6826 0.1082 -0.7227
vn 0.3541 -0.3918 0.8492
vn -0.6826 0.1082 0.7227
vn 0.8857 -0.4643 -0.0000
vn 0.3039 0.1795 -0.9356
vn 0.0207 0.9998 0.0000
vn 0.3039 0.1795 0.9356
vn 0.2647 -0.4480 0.8539
vn -0.2647 0.4480 0.8539
vn -0.2522 -0.1490 0.9561
vn 0.7623 -0.6472 0.0000
vn -0.9761 0.2175 0.0000
vn -0.2522 -0.1490 -0.9561
vn 0.2647 -0.4480 -0.8539
vn -0.2647 0.4480 -0.8539
vn 0.5086 -0.8610 0.0000
vn -0.0413 -0.9991 0.0000
vn 0.5428 -0.8399 0.0000
vn -0.1797 -0.0819 0.9803
vn -0.1797 -0.0819 -0.9803
usemtl None
s off
f 81/84/88 83/85/88 70/86/88 68/87/88
f 89/88/89 84/89/89 92/90/89 94/91/89
f 88/92/90 76/93/90 71/94/90 82/95/90
f 69/96/91 72/97/91 78/98/91 74/99/91
f 75/100/92 77/101/92 90/102/92 86/103/92
f 67/104/93 68/105/93 69/106/93
f 70/86/94 71/107/94 72/108/94
f 73/109/95 74/110/95 75/111/95
f 76/112/96 77/113/96 78/114/96
f 79/115/97 80/116/97 81/117/97
f 82/118/98 83/119/98 84/120/98
f 85/121/99 86/122/99 87/123/99
f 88/124/100 89/125/100 90/126/100
f 73/109/101 67/104/101 69/106/101 74/110/101
f 68/127/102 70/128/102 72/97/102 69/96/102
f 71/129/103 76/130/103 78/98/103 72/97/103
f 77/101/104 75/100/104 74/99/104 78/98/104
f 85/121/105 73/109/105 75/111/105 86/122/105
f 76/112/106 88/131/106 90/102/106 77/101/106
f 89/88/107 87/132/107 86/103/107 90/102/107
f 79/115/108 85/121/108 87/132/108 80/133/108
f 88/92/109 82/95/109 84/89/109 89/88/109
f 83/85/110 81/84/110 80/133/110 84/89/110
f 67/104/111 79/115/111 81/117/111 68/105/111
f 82/118/112 71/107/112 70/86/112 83/85/112
f 73/109/113 85/121/113 79/115/113 67/104/113
f 93/134/114 94/91/114 92/90/114 91/135/114
f 80/133/115 87/132/115 93/134/115 91/135/115
f 87/132/116 89/88/116 94/91/116 93/134/116
f 84/89/117 80/133/117 91/135/117 92/90/117
o Cube.001_Cube.002
v 0.143579 1.098509 0.237283
v 0.260399 1.296248 0.377242
v -0.059029 1.484959 0.237283
v 0.656505 1.966729 0.377242
v 0.773325 2.164468 0.237283
v 0.337077 2.155440 0.237283
v 0.143579 1.098509 -0.237283
v -0.059029 1.484959 -0.237283
v 0.260399 1.296248 -0.377242
v 0.773325 2.164468 -0.237283
v 0.656505 1.966729 -0.377242
v 0.337077 2.155440 -0.237283
v 1.226675 0.458639 0.237283
v 1.662923 -0.055173 0.182093
v 1.343495 0.656377 0.377242
v 1.856421 1.524598 0.237283
v 1.739601 1.326859 0.377242
v 2.059029 0.615309 0.182093
v 1.226675 0.458639 -0.237283
v 1.343495 0.656377 -0.377242
v 1.662923 -0.055173 -0.182093
v 1.856421 1.524598 -0.237283
v 2.059029 0.615309 -0.182093
v 1.739601 1.326859 -0.377242
v 1.732869 -0.100379 0.182093
v 1.976808 -0.090291 0.121610
v 1.732869 -0.100379 -0.182093
v 1.976808 -0.090291 -0.121610
vt 0.421376 0.796376
vt 0.578624 0.796376
vt 0.578624 0.953624
vt 0.421376 0.953624
vt 0.578624 0.546376
vt 0.578624 0.703624
vt 0.578624 0.703624
vt 0.578624 0.546376
vt 0.671376 0.546376
vt 0.828624 0.546376
vt 0.828624 0.703624
vt 0.671376 0.703624
vt 0.421376 0.046376
vt 0.578624 0.046376
vt 0.578624 0.203624
vt 0.421376 0.203624
vt 0.421376 0.296376
vt 0.578624 0.296376
vt 0.578624 0.453624
vt 0.421376 0.453624
vt 0.171376 0.703624
vt 0.171376 0.750000
vt 0.125000 0.703624
vt 0.625000 0.953624
vt 0.578624 1.000000
vt 0.171376 0.546376
vt 0.125000 0.546376
vt 0.171376 0.500000
vt 0.625000 0.296376
vt 0.625000 0.296376
vt 0.578624 0.250000
vt 0.328624 0.703624
vt 0.375000 0.703624
vt 0.328624 0.750000
vt 0.625000 0.796376
vt 0.625000 0.796376
vt 0.578624 0.750000
vt 0.328624 0.546376
vt 0.328624 0.500000
vt 0.375000 0.546376
vt 0.625000 0.546376
vt 0.625000 0.546376
vt 0.578624 0.500000
vt 0.421376 0.000000
vt 0.578624 0.000000
vt 0.625000 0.046376
vt 0.625000 0.203624
vt 0.625000 0.453624
vt 0.421376 0.546376
vt 0.421376 0.703624
vt 0.421376 0.546376
vt 0.421376 0.703624
vn 0.0000 0.0000 1.0000
vn 0.9933 -0.1157 0.0000
vn 0.5086 0.8610 0.0000
vn -0.8610 0.5086 0.0000
vn 0.0000 0.0000 -1.0000
vn -0.5159 -0.2705 0.8128
vn -0.0121 0.5824 0.8128
vn -0.5159 -0.2705 -0.8128
vn -0.0121 0.5824 -0.8128
vn -0.3541 -0.3918 0.8492
vn 0.6826 0.1082 0.7227
vn -0.3541 -0.3918 -0.8492
vn 0.6826 0.1082 -0.7227
vn -0.8857 -0.4643 0.0000
vn -0.3039 0.1795 0.9356
vn -0.0207 0.9998 0.0000
vn -0.3039 0.1795 -0.9356
vn -0.2647 -0.4480 -0.8539
vn 0.2647 0.4480 -0.8539
vn 0.2522 -0.1490 -0.9561
vn -0.7623 -0.6472 0.0000
vn 0.9761 0.2175 0.0000
vn 0.2522 -0.1490 0.9561
vn -0.2647 -0.4480 0.8539
vn 0.2647 0.4480 0.8539
vn -0.5086 -0.8610 0.0000
vn 0.0413 -0.9991 0.0000
vn -0.5428 -0.8399 0.0000
vn 0.1797 -0.0819 -0.9803
vn 0.1797 -0.0819 0.9803
usemtl None
s off
f 109/136/118 111/137/118 98/138/118 96/139/118
f 117/140/119 112/141/119 120/142/119 122/143/119
f 116/144/120 104/145/120 99/146/120 110/147/120
f 97/148/121 100/149/121 106/150/121 102/151/121
f 103/152/122 105/153/122 118/154/122 114/155/122
f 95/156/123 96/157/123 97/158/123
f 98/138/124 99/159/124 100/160/124
f 101/161/125 102/162/125 103/163/125
f 104/164/126 105/165/126 106/166/126
f 107/167/127 108/168/127 109/169/127
f 110/170/128 111/171/128 112/172/128
f 113/173/129 114/174/129 115/175/129
f 116/176/130 117/177/130 118/178/130
f 101/161/131 95/156/131 97/158/131 102/162/131
f 96/179/132 98/180/132 100/149/132 97/148/132
f 99/181/133 104/182/133 106/150/133 100/149/133
f 105/153/134 103/152/134 102/151/134 106/150/134
f 113/173/135 101/161/135 103/163/135 114/174/135
f 104/164/136 116/183/136 118/154/136 105/153/136
f 117/140/137 115/184/137 114/155/137 118/154/137
f 107/167/138 113/173/138 115/184/138 108/185/138
f 116/144/139 110/147/139 112/141/139 117/140/139
f 111/137/140 109/136/140 108/185/140 112/141/140
f 95/156/141 107/167/141 109/169/141 96/157/141
f 110/170/142 99/159/142 98/138/142 111/137/142
f 101/161/143 113/173/143 107/167/143 95/156/143
f 121/186/144 122/143/144 120/142/144 119/187/144
f 108/185/145 115/184/145 121/186/145 119/187/145
f 115/184/146 117/140/146 122/143/146 121/186/146
f 112/141/147 108/185/147 119/187/147 120/142/147
