# Blender v3.1.2 OBJ File: 'Rock1.blend'
# www.blender.org
mtllib Rock1.mtl
o Cube_Cube.001
v -0.183460 0.273266 -0.871787
v 0.567934 0.313915 0.737420
v -0.493645 -0.133996 0.619917
v -0.804522 0.685485 0.641989
v -0.705560 -0.179317 -0.117444
v -0.629038 0.259916 -0.757972
v -1.067768 2.470685 -1.222515
v -1.231634 2.906269 -0.981031
v 0.675283 1.224307 0.893943
v 1.085934 3.536100 1.036339
v 1.211138 3.029370 1.053221
v 1.082756 2.093051 0.988591
v 1.224361 2.556612 0.426212
v 0.193877 0.087603 -1.040172
v 0.762034 0.617970 -0.866366
v 0.979772 3.109981 -0.965815
v 1.190221 3.557309 -0.462066
v -0.500362 -0.498405 0.039657
v -0.130586 0.842112 -1.122954
v 0.225198 4.022760 -0.700097
v -0.449780 2.492743 -1.512318
v 0.649391 2.342374 -1.236038
v 0.580492 -0.646331 0.115363
v 0.890450 0.118922 0.148641
v 0.483203 4.210614 -0.347500
v 0.161716 4.289371 0.735109
v -0.065718 1.710375 1.371639
v -0.163041 1.032751 1.342058
v 0.982567 0.730780 -0.383480
v 1.386371 1.778083 -0.388447
v 1.318991 1.797565 -0.055046
v 0.989281 3.648110 0.214031
v 0.335712 4.217101 0.284215
v -0.985039 0.846498 0.143996
v -1.424125 1.907418 0.152746
v -0.890859 0.677282 -0.440324
v -0.422876 1.553227 -1.258859
v -0.483155 -0.028724 1.033726
v -0.594788 1.383152 0.866753
v -0.718232 0.500310 0.914723
v -1.010558 3.340494 1.014376
v -0.998227 3.503109 -0.814528
v -1.235848 3.345141 -0.751939
v 1.078113 3.398477 1.189582
v 0.711263 -0.065740 -0.937856
v 0.795932 -0.078038 -0.783410
v -0.927699 0.345039 -0.149322
v -0.939498 2.104611 0.890751
v -1.261857 3.363665 -0.103599
v -1.014216 3.771153 0.708011
v -1.353953 3.410227 0.259275
v -1.413004 2.766772 0.193211
v -0.642215 1.385742 -1.119271
v -0.792105 1.178873 -0.921947
v -1.165233 1.947583 -1.114269
v -0.025410 -0.105969 -0.717875
v 0.590678 -0.001248 -0.999685
v -0.531088 3.644118 -0.963453
v -0.066847 3.900010 -1.158523
v 0.009836 3.528146 -1.419241
v 0.373500 3.128315 -1.385857
v 0.540184 1.394601 -0.947862
v 0.699357 -0.304957 -0.355207
v 0.704472 -0.572318 0.058415
v 1.292787 3.091665 -0.444055
v 0.512890 1.164138 0.977272
v 0.119993 -0.540166 0.614336
v 0.196603 -0.011763 0.846691
v -0.087596 -0.183954 1.049971
v -0.476710 0.148876 1.218816
v -0.264634 0.196910 1.359538
v -0.347244 4.168196 1.074486
v -0.005202 4.051663 1.430594
v 0.068967 3.692816 1.593761
v 0.418409 3.213207 1.431868
v 0.001313 2.919311 1.636245
v -0.139657 -0.703009 0.022575
v 0.018592 -0.742009 0.154217
v 0.211105 -0.848360 0.294232
vt 0.462584 0.896542
vt 0.429693 0.922862
vt 0.429143 0.910428
vt 0.439008 0.521609
vt 0.509569 0.588297
vt 0.445892 0.586758
vt 0.510120 0.623438
vt 0.528042 0.738412
vt 0.472446 0.745820
vt 0.410627 0.638332
vt 0.554242 0.667131
vt 0.709862 0.596176
vt 0.720039 0.651115
vt 0.649910 0.643562
vt 0.628859 0.579745
vt 0.685871 0.560407
vt 0.474618 0.025117
vt 0.512988 0.114250
vt 0.454402 0.111476
vt 0.566778 0.108012
vt 0.534329 0.037217
vt 0.493355 0.317289
vt 0.446639 0.356667
vt 0.431634 0.318454
vt 0.546959 0.333551
vt 0.580477 0.409722
vt 0.551630 0.441560
vt 0.482234 0.474420
vt 0.431669 0.402367
vt 0.600908 0.280052
vt 0.624901 0.304044
vt 0.622474 0.301618
vt 0.609082 0.288225
vt 0.588616 0.267759
vt 0.593995 0.273138
vt 0.623584 0.802727
vt 0.610178 0.789322
vt 0.624444 0.803587
vt 0.595511 0.774655
vt 0.597686 0.776829
vt 0.609914 0.789057
vt 0.372535 0.553480
vt 0.349268 0.546173
vt 0.338216 0.535972
vt 0.343186 0.553290
vt 0.185938 0.629023
vt 0.125044 0.642925
vt 0.130732 0.607373
vt 0.429707 0.029782
vt 0.432640 0.049488
vt 0.734449 0.690781
vt 0.622830 0.397112
vt 0.608483 0.368492
vt 0.611355 0.323790
vt 0.598312 0.195801
vt 0.596330 0.139124
vt 0.819484 0.695714
vt 0.780404 0.695857
vt 0.588971 0.101966
vt 0.583097 0.194503
vt 0.594260 0.194512
vt 0.591161 0.054143
vt 0.514216 0.245087
vt 0.570315 0.221771
vt 0.554125 0.263021
vt 0.485244 0.275505
vt 0.253436 0.550736
vt 0.225350 0.521831
vt 0.274235 0.516220
vt 0.247372 0.500105
vt 0.588840 0.374422
vt 0.587059 0.444932
vt 0.370662 0.579005
vt 0.355812 0.628256
vt 0.283870 0.721817
vt 0.334958 0.637889
vt 0.342711 0.707318
vt 0.643381 0.695980
vt 0.579184 0.834868
vt 0.559676 0.874384
vt 0.499863 0.880165
vt 0.473222 0.784298
vt 0.190298 0.721134
vt 0.190076 0.736143
vt 0.150934 0.719072
vt 0.130802 0.700007
vt 0.189520 0.689050
vt 0.239866 0.721668
vt 0.215578 0.743029
vt 0.592789 0.957848
vt 0.600228 0.874000
vt 0.613445 0.898585
vt 0.586700 0.869668
vt 0.597904 0.804038
vt 0.466013 0.941194
vt 0.607595 0.536738
vt 0.591456 0.580606
vt 0.585762 0.514905
vt 0.171968 0.742060
vt 0.582700 0.988076
vt 0.572965 0.972182
vt 0.362921 0.708048
vt 0.601168 0.695857
vt 0.577959 0.757102
vt 0.580119 0.759262
vt 0.356447 0.536979
vt 0.325461 0.525462
vt 0.338722 0.517865
vt 0.157572 0.612623
vt 0.125000 0.596906
vt 0.156329 0.541715
vt 0.574115 0.189702
vt 0.604696 0.054143
vt 0.610777 0.058945
vt 0.471273 0.239232
vt 0.429194 0.244654
vt 0.440957 0.175779
vt 0.429143 0.463824
vt 0.380205 0.695629
vt 0.429143 0.702625
vt 0.266965 0.682380
vt 0.256727 0.638848
vt 0.229785 0.614052
vt 0.625008 0.857816
vt 0.611217 0.957385
vt 0.281898 0.648652
vt 0.729149 0.563352
vt 0.429056 0.142950
vt 0.618232 0.554143
vt 0.223429 0.750000
vn -0.5643 0.0858 0.8211
vn 0.8825 -0.3418 -0.3232
vn 0.9135 -0.3513 0.2051
vn 0.9265 -0.2326 0.2957
vn 0.6584 0.7383 0.1462
vn 0.6841 0.7216 0.1064
vn 0.4249 0.5815 -0.6938
vn -0.7247 -0.3050 0.6178
vn -0.8339 -0.0152 0.5517
vn -0.4195 -0.3338 -0.8442
vn 0.2428 -0.1653 -0.9559
vn -0.4053 0.3699 -0.8360
vn -0.4745 0.4038 -0.7822
vn 0.3576 -0.0541 0.9323
vn 0.5126 -0.1289 0.8489
vn 0.9346 0.2397 0.2629
vn 0.8775 0.0340 -0.4784
vn 0.9621 -0.2609 0.0787
vn -0.8471 -0.3371 0.4108
vn -0.9095 0.1483 0.3884
vn -0.9125 0.1519 0.3799
vn -0.4132 0.8948 -0.1690
vn -0.9593 0.1145 -0.2582
vn -0.9735 0.2239 -0.0455
vn -0.5614 0.8262 -0.0461
vn -0.9081 0.0406 0.4167
vn -0.8040 0.0269 -0.5940
vn -0.3757 -0.2514 -0.8920
vn -0.5460 -0.5003 -0.6720
vn -0.5098 -0.3074 -0.8035
vn 0.6438 0.5300 -0.5520
vn -0.6425 0.3466 -0.6834
vn 0.5698 0.0436 -0.8206
vn 0.5304 0.0628 -0.8454
vn 0.9577 -0.2362 -0.1645
vn 0.5839 -0.4360 0.6848
vn 0.6579 0.7526 0.0252
vn 0.3998 -0.1843 0.8979
vn -0.9223 -0.3597 0.1414
vn -0.2913 -0.6813 0.6716
vn -0.5835 0.4170 0.6969
vn 0.4418 0.4454 0.7787
vn -0.5213 0.2616 0.8123
vn -0.6791 0.1405 0.7205
vn 0.7879 -0.0262 -0.6153
vn 0.9781 0.0779 0.1931
vn 0.6067 0.7876 0.1079
vn -0.7292 -0.3676 0.5771
vn -0.3159 -0.3283 -0.8902
vn -0.6937 0.1354 0.7075
vn -0.8645 -0.0990 0.4928
vn -0.3479 0.3510 -0.8693
vn 0.4354 -0.2022 0.8772
vn 0.9811 0.1779 0.0767
vn 0.9812 -0.1434 0.1288
vn 0.9115 -0.0248 -0.4105
vn 0.4756 -0.8171 -0.3258
vn 0.4906 0.0515 -0.8699
vn -0.9124 -0.3458 0.2189
vn -0.8413 -0.3304 0.4278
vn -0.8825 -0.2507 -0.3980
vn -0.8497 -0.3820 -0.3635
vn -0.5696 -0.1353 0.8107
vn -0.9873 0.0660 -0.1446
vn -0.8607 0.2902 0.4182
vn -0.1871 -0.1655 -0.9683
vn -0.4567 -0.4181 -0.7853
vn -0.8776 -0.2307 -0.4202
vn -0.9562 -0.2042 -0.2099
vn -0.4048 -0.2427 -0.8816
vn -0.2276 -0.3000 -0.9264
vn -0.1234 -0.8114 -0.5713
vn 0.6324 0.5279 -0.5669
vn 0.1270 0.0327 -0.9914
vn -0.5169 0.3383 -0.7863
vn 0.4742 0.5839 -0.6590
vn 0.6162 -0.2933 -0.7310
vn 0.1105 0.0409 -0.9930
vn 0.5779 -0.4384 0.6884
vn 0.7981 -0.2841 0.5313
vn 0.9542 -0.2647 -0.1392
vn 0.8340 -0.1876 0.5189
vn 0.6789 -0.3758 0.6308
vn -0.4698 -0.7836 0.4066
vn -0.2958 -0.6841 0.6667
vn -0.0115 0.9470 0.3209
vn 0.4334 0.0116 0.9011
vn 0.5083 0.7440 0.4337
vn -0.6208 0.4509 0.6413
vn -0.4938 0.0907 0.8649
vn 0.0622 -0.8362 -0.5448
vn -0.6534 -0.6296 0.4202
vn -0.4063 -0.6583 -0.6336
vn 0.5754 -0.4437 0.6871
vn 0.4746 0.5841 -0.6585
vn -0.9880 -0.0239 -0.1523
vn -0.3837 0.3843 -0.8397
vn -0.9077 -0.3506 0.2307
vn -0.5396 0.8069 -0.2405
vn -0.6323 -0.2434 -0.7355
vn 0.8480 0.1673 -0.5029
vn 0.7536 -0.3531 0.5544
vn 0.5722 -0.1687 0.8026
usemtl None
s off
f 28/1/1 70/2/1 71/3/1
f 15/4/2 30/5/2 29/6/2
f 30/5/3 31/7/3 29/6/3
f 12/8/4 9/9/4 24/10/4 29/6/4 31/7/4 13/11/4
f 25/12/5 33/13/5 32/14/5
f 25/12/6 32/14/6 17/15/6
f 25/12/7 17/15/7 16/16/7
f 39/17/8 35/18/8 34/19/8
f 52/20/9 35/18/9 48/21/9
f 37/22/10 19/23/10 1/24/10
f 37/22/11 21/25/11 61/26/11 22/27/11 62/28/11 14/29/11 19/23/11
f 7/30/12 58/31/12 21/32/12
f 42/33/13 8/34/13 43/35/13
f 75/36/14 44/37/14 74/38/14
f 11/39/15 44/37/15 12/40/15
f 10/41/16 44/37/16 11/39/16
f 29/42/17 46/43/17 45/44/17
f 63/45/18 46/43/18 29/42/18
f 18/46/19 34/47/19 47/48/19
f 40/49/20 39/17/20 4/50/20
f 4/50/21 39/17/21 34/19/21
f 26/51/22 33/13/22 25/12/22 20/52/22 59/53/22 58/54/22 42/55/22 49/56/22 50/57/22 72/58/22
f 49/56/23 52/20/23 51/59/23
f 49/56/24 43/60/24 52/20/24
f 42/55/25 43/61/25 49/56/25
f 41/62/26 51/59/26 52/20/26
f 55/63/27 8/64/27 7/65/27
f 37/22/28 53/66/28 21/25/28
f 56/67/29 1/68/29 14/69/29
f 14/69/30 1/68/30 19/70/30
f 20/52/31 61/26/31 59/53/31
f 60/71/32 21/25/32 59/53/32
f 16/72/33 22/27/33 61/26/33
f 30/5/34 15/4/34 62/28/34
f 63/73/35 24/10/35 64/74/35
f 68/75/36 23/76/36 2/77/36
f 33/13/37 10/78/37 32/14/37
f 44/37/38 75/79/38 76/80/38 27/81/38 66/82/38 9/9/38 12/40/38
f 38/83/39 70/84/39 40/85/39 4/86/39 3/87/39
f 69/88/40 71/89/40 70/84/40
f 41/90/41 73/91/41 72/92/41
f 73/91/42 74/93/42 44/94/42
f 41/90/43 74/93/43 73/91/43
f 28/1/44 39/95/44 70/2/44
f 16/96/45 65/97/45 30/5/45 22/98/45
f 30/5/46 65/97/46 31/7/46
f 33/13/47 26/51/47 10/78/47
f 39/17/48 48/21/48 35/18/48
f 53/66/49 37/22/49 1/24/49
f 39/99/50 40/85/50 70/84/50
f 52/100/51 48/101/51 41/90/51
f 7/30/52 8/34/52 58/31/52
f 68/75/53 2/77/53 9/102/53
f 11/103/54 13/11/54 31/7/54 65/97/54 17/15/54 32/14/54 10/41/54
f 13/104/55 11/39/55 12/105/55
f 15/106/56 29/42/56 45/44/56
f 46/43/57 63/45/57 45/44/57
f 15/106/58 45/44/58 57/107/58 62/108/58
f 34/47/59 18/46/59 4/86/59
f 5/109/60 18/46/60 47/48/60
f 47/48/61 36/110/61 6/111/61
f 5/109/62 47/48/62 6/111/62
f 39/95/63 28/1/63 27/81/63 76/80/63 41/90/63 48/21/63
f 52/20/64 43/60/64 8/112/64
f 41/113/65 50/114/65 51/59/65
f 7/65/66 53/66/66 55/63/66
f 55/63/67 53/66/67 54/115/67
f 54/115/68 6/116/68 36/117/68
f 35/18/69 52/20/69 8/64/69 55/63/69 54/115/69 36/117/69 34/19/69
f 21/25/70 53/66/70 7/65/70
f 1/24/71 6/116/71 53/66/71
f 14/69/72 57/107/72 56/67/72
f 60/71/73 59/53/73 61/26/73
f 21/25/74 60/71/74 61/26/74
f 58/54/75 59/53/75 21/25/75
f 20/52/76 16/72/76 61/26/76
f 62/28/77 22/27/77 30/5/77
f 62/28/78 57/118/78 14/29/78
f 2/77/79 23/76/79 64/74/79
f 2/119/80 64/74/80 24/10/80
f 24/10/81 63/73/81 29/6/81
f 9/9/82 2/120/82 24/10/82
f 67/121/83 68/75/83 69/88/83
f 78/122/84 67/121/84 69/88/84 38/83/84 3/87/84 18/46/84 77/123/84
f 38/83/85 69/88/85 70/84/85
f 73/91/86 26/124/86 72/92/86
f 75/79/87 74/93/87 76/80/87
f 73/91/88 44/37/88 10/41/88 26/124/88
f 72/92/89 50/125/89 41/90/89
f 74/93/90 41/90/90 76/80/90
f 23/76/91 79/126/91 78/122/91 77/123/91 56/67/91 57/107/91 45/44/91 63/73/91 64/74/91
f 78/122/92 79/126/92 67/121/92
f 5/109/93 6/111/93 1/68/93 56/67/93 77/123/93 18/46/93
f 79/126/94 23/76/94 68/75/94
f 25/12/95 16/16/95 20/127/95
f 36/117/96 47/128/96 34/19/96
f 42/33/97 58/31/97 8/34/97
f 4/86/98 18/46/98 3/87/98
f 51/59/99 50/114/99 49/56/99
f 54/115/100 53/66/100 6/116/100
f 65/97/101 16/129/101 17/15/101
f 67/121/102 79/126/102 68/75/102
f 28/130/103 71/89/103 69/88/103 68/75/103 9/9/103 66/82/103 27/81/103
